# xmcd
#
# Track frame offsets: 
#        150
#        18002
#        34310
#        58441
#        68588
#        86666
#        111012
#        131212
#        168854
#        209333
#        252874
#
# Disc length: 3984 seconds
#
# Revision: 1
# Processed by: cddbd v1.5.2PL0 Copyright (c) Steve Scherf et al.
# Submitted via: ExactAudioCopy v0.99pb3
#
DISCID=960f8e0b
DTITLE=Marvin Gaye - Let's Get It On - His Greatest Hits in Concert
DYEAR=1993
DGENRE=Soul
TTITLE0=I Heard It Through The Grapevine
TTITLE1=Come Get To This
TTITLE2=Let's Get It On
TTITLE3=God Is My Friend
TTITLE4=What's Goin' On
TTITLE5=Inner City Blues
TTITLE6=Joy
TTITLE7=Medley, 4 Songs
TTITLE8=Rockin' After Midnight
TTITLE9=Distant Lover
TTITLE10=Sexual Healing
EXTD=Track 08 - Medley (4 Songs):\n==============================\n01)
EXTD=Ain't Nothing Like The Real Thing\n02)  Heaven Must Have Sent Y
EXTD=ou\n03)  Let's Be Friends\n04)  If This World Were Mine
EXTT0=
EXTT1=
EXTT2=
EXTT3=
EXTT4=
EXTT5=
EXTT6=
EXTT7=Track 08 - Medley (4 Songs):\n==============================\n01
EXTT7=)  Ain't Nothing Like The Real Thing\n02)  Heaven Must Have Sent
EXTT7=You\n03)  Let's Be Friends\n04)  If This World Were Mine
EXTT8=
EXTT9=
EXTT10=
PLAYORDER=
